<?xml version="1.0" encoding="utf-8"?>
<!-- Generator: Adobe Illustrator 17.1.0, SVG Export Plug-In . SVG Version: 6.00 Build 0)  -->
<!DOCTYPE svg PUBLIC "-//W3C//DTD SVG 1.1//EN" "http://www.w3.org/Graphics/SVG/1.1/DTD/svg11.dtd">
<svg version="1.1" id="Ebene_1" xmlns="http://www.w3.org/2000/svg" xmlns:xlink="http://www.w3.org/1999/xlink" x="0px" y="0px"
	 viewBox="0 0 50 102" enable-background="new 0 0 50 102" xml:space="preserve">
<path fill="none" stroke="#FFFFFF" stroke-width="2.3934" stroke-linecap="round" stroke-linejoin="round" stroke-miterlimit="10" d="
	M11.8,55.9c0,0-0.2-22.6-0.2-24.1c0-0.7-0.7-4-4.5-4c-2.8,0-4.9,1.9-4.9,4.4c0,0.2,0,46.9,0,46.9c0,8.5,8.5,20,20.2,20
	c19.7,0,21.2-19.6,21.2-19.6s0-13.5,0-13.9s-0.2-0.9-0.2-0.9l-2.6-6l-9.3-21.3c0,0-2-3.2-5.8-1.3c-3.9,2-2.5,5.5-2.5,5.5l11.4,27.1
	v1.4"/>
<path fill="none" stroke="#FFFFFF" stroke-width="2.3934" stroke-linecap="round" stroke-linejoin="round" stroke-miterlimit="10" d="
	M11.6,30.9v-9.3c0,0,0.2-4.5,4.8-4.5c0,0,1.9,0.6,3.3,1.2"/>
<line fill="none" stroke="#FFFFFF" stroke-width="2.3934" stroke-linecap="round" stroke-linejoin="round" stroke-miterlimit="10" x1="21.3" y1="56.2" x2="21.3" y2="51.7"/>
<line fill="none" stroke="#FFFFFF" stroke-width="2.3934" stroke-linecap="round" stroke-linejoin="round" stroke-miterlimit="10" x1="41.6" y1="51.6" x2="41.6" y2="59.5"/>
<polyline fill="none" stroke="#FFFFFF" stroke-width="4" stroke-miterlimit="10" points="27.5,51.7 19.2,51.7 19.2,5.9 48,5.9 
	48,51.7 37.9,51.7 "/>
</svg>
